<svg xmlns="http://www.w3.org/2000/svg" xmlns:xlink="http://www.w3.org/1999/xlink" width="3000" zoomAndPan="magnify" viewBox="0 0 2250 2250.000011" height="3000" preserveAspectRatio="xMidYMid meet" version="1.0"><defs><g/><clipPath id="42e46a37be"><path d="M 1056 0.59375 L 2113.527344 0.59375 L 2113.527344 1683 L 1056 1683 Z M 1056 0.59375 " clip-rule="nonzero"/></clipPath><clipPath id="5d90ee0510"><path d="M 0.542969 516 L 1057 516 L 1057 2148.269531 L 0.542969 2148.269531 Z M 0.542969 516 " clip-rule="nonzero"/></clipPath><clipPath id="9544fbf323"><rect x="0" width="2114" y="0" height="2149"/></clipPath></defs><g transform="matrix(1, 0, 0, 1, 68, 50)"><g clip-path="url(#9544fbf323)"><g clip-path="url(#42e46a37be)"><path fill="#d8ae72" d="M 1056.78125 0.59375 C 1154.636719 1.765625 1252.355469 15.785156 1346.082031 43.175781 C 1369.460938 49.988281 1392.582031 57.597656 1415.4375 65.996094 C 1438.296875 74.394531 1460.839844 83.5625 1483.070312 93.507812 C 1505.300781 103.449219 1527.164062 114.140625 1548.660156 125.582031 C 1570.160156 137.019531 1591.242188 149.183594 1611.90625 162.066406 C 1632.570312 174.949219 1652.769531 188.527344 1672.503906 202.792969 C 1692.238281 217.058594 1711.464844 231.984375 1730.175781 247.570312 C 1748.886719 263.152344 1767.046875 279.359375 1784.648438 296.1875 C 1802.25 313.015625 1819.257812 330.425781 1835.667969 348.417969 L 1841.792969 355.144531 L 1844.859375 358.5 L 1847.847656 361.945312 L 1859.789062 375.671875 C 1861.800781 377.941406 1863.703125 380.304688 1865.644531 382.644531 L 1871.414062 389.640625 L 1877.183594 396.652344 C 1879.105469 398.996094 1880.941406 401.398438 1882.835938 403.773438 L 1894.082031 418.070312 L 1904.996094 432.617188 C 1908.6875 437.425781 1912.175781 442.386719 1915.695312 447.316406 L 1920.972656 454.71875 L 1923.617188 458.421875 C 1924.484375 459.664062 1925.320312 460.921875 1926.175781 462.171875 L 1936.375 477.21875 C 1938.097656 479.707031 1939.722656 482.265625 1941.367188 484.8125 L 1946.277344 492.503906 L 1951.203125 500.148438 C 1952.84375 502.6875 1954.375 505.300781 1956.007812 507.839844 L 1965.46875 523.347656 L 1974.554688 539.085938 C 1976.054688 541.710938 1977.613281 544.304688 1979.0625 546.960938 L 1983.410156 554.9375 L 1987.753906 562.910156 C 1989.195312 565.5625 1990.640625 568.207031 1992.042969 570.90625 L 2000.339844 587.058594 C 2022.132812 630.296875 2040.871094 674.820312 2056.554688 720.628906 C 2072.242188 766.4375 2084.726562 813.101562 2094.011719 860.621094 L 2097.242188 878.4375 L 2098.847656 887.339844 L 2100.242188 896.28125 L 2102.992188 914.164062 L 2105.308594 932.113281 C 2105.683594 935.105469 2106.117188 938.085938 2106.433594 941.082031 L 2107.394531 950.082031 C 2107.988281 956.082031 2108.671875 962.070312 2109.210938 968.070312 L 2110.625 986.097656 C 2110.835938 989.105469 2111.144531 992.097656 2111.277344 995.117188 L 2111.757812 1004.132812 C 2112.054688 1010.152344 2112.449219 1016.171875 2112.664062 1022.1875 L 2113.164062 1040.253906 C 2113.21875 1043.261719 2113.382812 1046.273438 2113.363281 1049.28125 L 2113.363281 1058.320312 C 2113.363281 1064.339844 2113.429688 1070.355469 2113.363281 1076.375 C 2113.085938 1100.410156 2111.921875 1124.523438 2110.019531 1148.480469 C 2108.113281 1172.441406 2105.433594 1196.398438 2101.882812 1220.183594 C 2098.335938 1243.96875 2093.953125 1267.628906 2088.800781 1291.097656 C 2083.644531 1314.566406 2077.703125 1337.871094 2070.964844 1360.925781 C 2064.226562 1383.980469 2056.621094 1406.765625 2048.296875 1429.273438 C 2031.652344 1474.308594 2012.011719 1517.996094 1989.371094 1560.332031 C 1966.734375 1602.671875 1941.308594 1643.265625 1913.101562 1682.117188 C 1940.421875 1642.816406 1964.929688 1601.835938 1986.628906 1559.171875 C 2008.328125 1516.511719 2027.011719 1472.566406 2042.679688 1427.339844 C 2050.488281 1404.800781 2057.519531 1382.011719 2063.773438 1358.984375 C 2070.03125 1335.957031 2075.441406 1312.746094 2080.011719 1289.359375 C 2084.640625 1265.976562 2088.484375 1242.46875 2091.550781 1218.839844 C 2094.613281 1195.207031 2096.800781 1171.511719 2098.105469 1147.75 C 2099.492188 1123.992188 2100.144531 1100.199219 2099.914062 1076.421875 C 2099.867188 1070.480469 2099.664062 1064.53125 2099.546875 1058.589844 L 2099.335938 1049.675781 C 2099.335938 1046.707031 2099.078125 1043.742188 2098.953125 1040.773438 L 2098.097656 1022.96875 C 2097.761719 1017.035156 2097.242188 1011.113281 2096.828125 1005.191406 L 2096.175781 996.308594 C 2095.972656 993.335938 2095.605469 990.394531 2095.339844 987.433594 L 2093.578125 969.707031 C 2092.925781 963.800781 2092.125 957.917969 2091.40625 952.023438 L 2090.300781 943.1875 C 2089.925781 940.246094 2089.433594 937.316406 2089.011719 934.382812 L 2086.359375 916.777344 L 2083.28125 899.242188 L 2081.734375 890.472656 L 2079.972656 881.753906 L 2076.425781 864.3125 C 2066.363281 817.941406 2053.179688 772.472656 2036.878906 727.910156 C 2020.578125 683.34375 2001.308594 640.105469 1979.074219 598.183594 L 1970.621094 582.578125 C 1969.246094 579.964844 1967.738281 577.417969 1966.277344 574.886719 L 1961.863281 567.195312 L 1957.460938 559.503906 C 1955.988281 556.949219 1954.414062 554.4375 1952.894531 551.902344 L 1943.710938 536.738281 L 1934.125 521.683594 C 1932.511719 519.203125 1930.972656 516.683594 1929.320312 514.242188 L 1924.367188 506.886719 L 1919.417969 499.542969 C 1917.761719 497.089844 1916.128906 494.628906 1914.398438 492.234375 L 1904.148438 477.8125 C 1903.292969 476.613281 1902.449219 475.390625 1901.574219 474.207031 L 1898.929688 470.652344 L 1893.632812 463.554688 C 1890.101562 458.816406 1886.605469 454.058594 1882.921875 449.453125 L 1871.988281 435.511719 L 1860.75 421.832031 C 1858.828125 419.5625 1857.019531 417.253906 1855.109375 415.015625 L 1843.570312 401.554688 C 1841.648438 399.332031 1839.726562 397.074219 1837.734375 394.902344 L 1825.851562 381.796875 L 1822.882812 378.519531 L 1819.824219 375.308594 L 1813.726562 368.902344 C 1797.519531 351.847656 1780.75 335.363281 1763.414062 319.453125 C 1746.074219 303.542969 1728.214844 288.246094 1709.832031 273.558594 C 1691.445312 258.875 1672.582031 244.832031 1653.234375 231.4375 C 1633.890625 218.046875 1614.109375 205.328125 1593.890625 193.289062 C 1573.671875 181.25 1553.066406 169.917969 1532.074219 159.289062 C 1511.082031 148.664062 1489.75 138.765625 1468.078125 129.597656 C 1446.40625 120.433594 1424.449219 112.019531 1402.199219 104.355469 C 1379.953125 96.695312 1357.46875 89.800781 1334.75 83.679688 L 1317.730469 79.277344 L 1313.472656 78.179688 L 1309.195312 77.21875 L 1300.628906 75.230469 C 1289.246094 72.441406 1277.738281 70.230469 1266.265625 67.824219 C 1263.382812 67.199219 1260.5 66.75 1257.613281 66.210938 L 1248.960938 64.652344 L 1240.308594 63.085938 C 1237.425781 62.558594 1234.539062 62.171875 1231.65625 61.710938 L 1214.292969 59.019531 C 1208.523438 58.222656 1202.679688 57.511719 1196.882812 56.75 L 1188.171875 55.625 L 1179.441406 54.664062 L 1161.980469 52.855469 L 1144.472656 51.492188 L 1135.726562 50.808594 L 1126.957031 50.347656 L 1109.429688 49.386719 L 1091.882812 48.90625 L 1083.117188 48.664062 L 1056.792969 48.664062 Z M 1056.78125 0.59375 " fill-opacity="1" fill-rule="nonzero"/></g><g clip-path="url(#5d90ee0510)"><path fill="#d8ae72" d="M 1056.78125 2148.40625 L 1038.910156 2147.992188 L 1029.976562 2147.78125 C 1027 2147.683594 1024.027344 2147.511719 1021.046875 2147.378906 L 1003.203125 2146.511719 C 997.25 2146.15625 991.320312 2145.65625 985.378906 2145.234375 C 973.484375 2144.492188 961.648438 2143.109375 949.804688 2141.984375 C 946.835938 2141.714844 943.882812 2141.292969 940.929688 2140.9375 L 932.066406 2139.832031 C 926.164062 2139.082031 920.242188 2138.417969 914.367188 2137.464844 L 896.707031 2134.8125 C 893.753906 2134.398438 890.832031 2133.851562 887.898438 2133.332031 L 879.101562 2131.785156 C 867.363281 2129.859375 855.722656 2127.332031 844.058594 2124.996094 C 820.8125 2119.917969 797.640625 2114.421875 774.835938 2107.796875 C 763.355469 2104.691406 752.042969 2101.019531 740.675781 2097.539062 C 735.003906 2095.75 729.398438 2093.789062 723.757812 2091.914062 L 715.304688 2089.03125 C 712.488281 2088.066406 709.71875 2087.019531 706.921875 2086.03125 L 690.175781 2079.925781 C 684.617188 2077.820312 679.109375 2075.609375 673.570312 2073.445312 L 665.273438 2070.195312 C 662.523438 2069.078125 659.804688 2067.898438 657.0625 2066.753906 L 640.640625 2059.839844 C 597.109375 2040.835938 555.019531 2019.042969 514.378906 1994.460938 C 473.734375 1969.878906 434.890625 1942.722656 397.84375 1912.992188 L 384.136719 1901.707031 C 381.855469 1899.78125 379.539062 1897.976562 377.300781 1896.035156 L 363.839844 1884.496094 C 361.609375 1882.574219 359.339844 1880.652344 357.167969 1878.652344 L 344.042969 1866.710938 C 326.738281 1850.625 309.683594 1834.175781 293.464844 1816.964844 L 287.339844 1810.554688 C 285.28125 1808.429688 283.339844 1806.207031 281.332031 1804.035156 L 269.390625 1790.929688 L 257.746094 1777.558594 L 251.976562 1770.828125 L 246.335938 1764 C 242.574219 1759.445312 238.777344 1754.917969 235.058594 1750.332031 L 224.085938 1736.417969 C 220.394531 1731.8125 216.875 1727.0625 213.339844 1722.34375 L 208.023438 1715.257812 C 206.253906 1712.894531 204.464844 1710.546875 202.773438 1708.125 L 192.496094 1693.703125 L 189.929688 1690.097656 L 187.4375 1686.433594 L 182.46875 1679.109375 C 175.738281 1669.398438 169.46875 1659.410156 163.074219 1649.496094 C 161.449219 1647.035156 159.960938 1644.488281 158.414062 1641.976562 L 153.808594 1634.421875 L 149.203125 1626.863281 C 147.65625 1624.355469 146.230469 1621.769531 144.742188 1619.171875 L 135.90625 1603.859375 L 127.417969 1588.332031 L 123.1875 1580.574219 L 119.148438 1572.707031 L 111.082031 1556.96875 L 103.390625 1541.058594 C 102.121094 1538.40625 100.785156 1535.769531 99.542969 1533.085938 L 95.890625 1525.039062 C 85.96875 1503.667969 77.113281 1481.777344 68.671875 1459.835938 L 62.570312 1443.273438 L 61.050781 1439.128906 L 59.597656 1435.03125 L 56.714844 1426.679688 L 53.828125 1418.324219 L 52.503906 1414.101562 L 51.175781 1409.890625 L 45.90625 1393.046875 C 39.175781 1370.492188 32.917969 1347.859375 27.753906 1324.863281 C 17.144531 1279.011719 9.636719 1232.660156 5.230469 1185.804688 C 4.894531 1182.917969 4.691406 1179.957031 4.460938 1177.027344 L 3.777344 1168.25 C 3.355469 1162.402344 2.816406 1156.558594 2.539062 1150.691406 L 1.574219 1133.117188 L 1.34375 1128.722656 L 1.21875 1124.320312 L 0.980469 1115.535156 L 0.738281 1106.738281 L 0.664062 1102.382812 C 0.664062 1100.910156 0.664062 1099.496094 0.664062 1097.976562 L 0.664062 1080.382812 C 0.566406 1074.527344 0.835938 1068.664062 0.988281 1062.800781 L 1.488281 1045.226562 C 3.253906 998.363281 8.113281 951.820312 16.066406 905.605469 C 24.019531 859.386719 35 813.898438 49.003906 769.144531 C 63.011719 724.527344 79.9375 681.046875 99.777344 638.699219 C 119.617188 596.355469 142.191406 555.523438 167.507812 516.203125 C 155.339844 536.019531 143.84375 556.21875 133.027344 576.804688 C 122.207031 597.390625 112.089844 618.316406 102.671875 639.578125 C 93.253906 660.839844 84.554688 682.390625 76.578125 704.234375 C 68.601562 726.078125 61.363281 748.164062 54.867188 770.492188 C 48.367188 792.820312 42.621094 815.34375 37.628906 838.054688 C 32.636719 860.765625 28.40625 883.621094 24.945312 906.617188 C 21.480469 929.613281 18.789062 952.695312 16.867188 975.871094 C 14.949219 999.046875 13.804688 1022.261719 13.441406 1045.511719 L 13.324219 1062.894531 C 13.324219 1068.664062 13.160156 1074.492188 13.371094 1080.277344 L 13.777344 1097.652344 C 13.777344 1099.101562 13.835938 1100.535156 13.890625 1101.996094 L 14.113281 1106.332031 L 14.535156 1114.984375 L 14.960938 1123.636719 L 15.171875 1127.972656 L 15.488281 1132.308594 L 16.765625 1149.617188 C 17.132812 1155.382812 17.824219 1161.152344 18.363281 1166.921875 L 19.226562 1175.574219 C 19.515625 1178.457031 19.777344 1181.34375 20.1875 1184.226562 C 25.511719 1230.25 33.871094 1275.71875 45.273438 1320.625 C 50.828125 1343.0625 57.492188 1365.203125 64.5 1387.191406 L 70.027344 1403.605469 L 71.402344 1407.710938 L 72.882812 1411.777344 L 75.847656 1419.910156 L 78.808594 1428.042969 L 80.382812 1432.148438 L 81.960938 1436.175781 L 88.285156 1452.289062 C 97.035156 1473.644531 106.160156 1494.851562 116.320312 1515.5625 L 120.0625 1523.347656 C 121.300781 1525.953125 122.667969 1528.492188 123.957031 1531.039062 L 131.820312 1546.421875 L 140.039062 1561.632812 L 144.15625 1569.238281 L 148.453125 1576.738281 L 157.105469 1591.714844 L 166.054688 1606.492188 C 167.566406 1608.945312 169.007812 1611.445312 170.574219 1613.867188 L 175.226562 1621.136719 L 179.882812 1628.414062 C 181.4375 1630.835938 182.949219 1633.289062 184.582031 1635.660156 C 191.035156 1645.199219 197.371094 1654.8125 204.128906 1664.128906 L 209.117188 1671.175781 L 211.628906 1674.695312 L 214.203125 1678.15625 L 224.53125 1691.992188 C 226.222656 1694.308594 228.019531 1696.558594 229.789062 1698.828125 L 235.113281 1705.613281 C 238.664062 1710.144531 242.179688 1714.699219 245.882812 1719.074219 L 256.851562 1732.390625 C 260.574219 1736.773438 264.359375 1741.101562 268.109375 1745.457031 L 273.753906 1751.984375 L 279.523438 1758.378906 L 291.117188 1771.136719 L 303 1783.632812 C 305 1785.699219 306.933594 1787.824219 308.980469 1789.84375 L 315.066406 1795.949219 C 331.179688 1812.292969 348.050781 1827.945312 365.222656 1843.195312 L 378.230469 1854.492188 C 380.375 1856.414062 382.617188 1858.183594 384.816406 1860.019531 L 391.453125 1865.507812 L 398.085938 1871 C 400.285156 1872.835938 402.585938 1874.566406 404.816406 1876.351562 L 418.34375 1887.003906 C 454.734375 1914.964844 492.808594 1940.402344 532.566406 1963.316406 C 572.328125 1986.230469 613.425781 2006.421875 655.859375 2023.894531 L 671.820312 2030.199219 C 674.472656 2031.246094 677.128906 2032.324219 679.800781 2033.34375 L 687.847656 2036.304688 C 693.222656 2038.226562 698.566406 2040.273438 703.953125 2042.199219 L 720.191406 2047.714844 C 722.902344 2048.609375 725.582031 2049.589844 728.3125 2050.429688 L 736.496094 2052.984375 C 741.957031 2054.667969 747.386719 2056.445312 752.839844 2058.050781 C 763.839844 2061.148438 774.777344 2064.453125 785.863281 2067.195312 C 807.976562 2073.089844 830.28125 2077.875 852.671875 2082.269531 C 863.914062 2084.269531 875.121094 2086.441406 886.417969 2088.039062 L 894.878906 2089.335938 C 897.695312 2089.769531 900.511719 2090.242188 903.339844 2090.566406 L 920.320312 2092.757812 C 925.960938 2093.546875 931.644531 2094.046875 937.316406 2094.683594 L 945.824219 2095.558594 C 948.710938 2095.835938 951.488281 2096.191406 954.332031 2096.375 C 965.71875 2097.210938 977.0625 2098.296875 988.453125 2098.757812 C 994.15625 2099.039062 999.835938 2099.394531 1005.539062 2099.613281 L 1022.625 2100.074219 C 1025.507812 2100.144531 1028.324219 2100.25 1031.171875 2100.285156 L 1056.8125 2100.285156 Z M 1056.78125 2148.40625 " fill-opacity="1" fill-rule="nonzero"/></g><g fill="#292723" fill-opacity="1"><g transform="translate(359.726202, 1195.82388)"><g><path d="M 253.125 -257.015625 L 253.125 0 L 219.359375 0 L 60.5625 -217.015625 L 60.5625 0 L 31.453125 0 L 31.453125 -257.015625 L 65.21875 -257.015625 L 224.015625 -40.765625 L 224.015625 -257.015625 Z M 253.125 -257.015625 "/></g></g></g><g fill="#292723" fill-opacity="1"><g transform="translate(655.945108, 1195.82388)"><g/></g></g><g fill="#292723" fill-opacity="1"><g transform="translate(750.284856, 1195.82388)"><g><path d="M 145.59375 -260.109375 C 183.894531 -260.109375 215.335938 -247.300781 239.921875 -221.6875 C 263.992188 -196.832031 276.03125 -165.769531 276.03125 -128.5 C 276.03125 -91.226562 263.992188 -60.171875 239.921875 -35.328125 C 215.335938 -9.703125 183.894531 3.109375 145.59375 3.109375 C 107.28125 3.109375 75.832031 -9.703125 51.25 -35.328125 C 27.175781 -60.171875 15.140625 -91.226562 15.140625 -128.5 C 15.140625 -165.769531 27.175781 -196.832031 51.25 -221.6875 C 75.832031 -247.300781 107.28125 -260.109375 145.59375 -260.109375 Z M 145.59375 -25.234375 C 176.132812 -25.234375 200.847656 -35.195312 219.734375 -55.125 C 237.859375 -74.28125 246.921875 -98.738281 246.921875 -128.5 C 246.921875 -158.269531 237.859375 -182.726562 219.734375 -201.875 C 200.847656 -221.8125 176.132812 -231.78125 145.59375 -231.78125 C 115.050781 -231.78125 90.332031 -221.8125 71.4375 -201.875 C 53.320312 -182.726562 44.265625 -158.269531 44.265625 -128.5 C 44.265625 -98.738281 53.320312 -74.28125 71.4375 -55.125 C 90.332031 -35.195312 115.050781 -25.234375 145.59375 -25.234375 Z M 145.59375 -25.234375 "/></g></g></g><g fill="#292723" fill-opacity="1"><g transform="translate(1053.103712, 1195.82388)"><g/></g></g><g fill="#292723" fill-opacity="1"><g transform="translate(1147.443426, 1195.82388)"><g><path d="M 242.640625 -257.015625 L 138.59375 0 L 105.21875 0 L 1.171875 -257.015625 L 33 -257.015625 L 121.90625 -33 L 210.8125 -257.015625 Z M 242.640625 -257.015625 "/></g></g></g><g fill="#292723" fill-opacity="1"><g transform="translate(1402.898249, 1195.82388)"><g/></g></g><g fill="#292723" fill-opacity="1"><g transform="translate(1497.23803, 1195.82388)"><g><path d="M 255.84375 0 L 223.625 0 L 192.171875 -74.546875 L 64.828125 -74.546875 L 33.390625 0 L 1.171875 0 L 110.265625 -257.015625 L 146.75 -257.015625 Z M 180.921875 -101.328125 L 128.5 -226.734375 L 76.09375 -101.328125 Z M 180.921875 -101.328125 "/></g></g></g></g></g></svg>